<svg role="img" viewBox="0 0 24 24" xmlns="http://www.w3.org/2000/svg"><title>Bybit</title><g fill="#17181a"><path d="M5.2 6.4h4.3c1.7 0 2.9 1 2.9 2.5 0 .9-.4 1.6-1.1 2 .9.4 1.5 1.2 1.5 2.3 0 1.7-1.3 2.8-3.3 2.8H5.2V6.4Zm1.9 1.7v2.1h2.1c.8 0 1.3-.4 1.3-1.05 0-.64-.5-1.05-1.3-1.05H7.1Zm0 3.7v2.4h2.4c.85 0 1.45-.5 1.45-1.2s-.6-1.2-1.45-1.2H7.1Z"/></g><rect x="14.1" y="6.4" width="1.9" height="11.6" rx="0.6" fill="#f7a600"/><path fill="#17181a" d="M17.6 6.4h1.9v6.0c0 .9.5 1.4 1.3 1.4s1.3-.5 1.3-1.4v-6h1.9v6.1c0 1.9-1.3 3.1-3.2 3.1s-3.2-1.2-3.2-3.1V6.4Z"/></svg>
